<?xml version="1.0" encoding="UTF-8"?>
<svg width="1200pt" height="1200pt" version="1.1" viewBox="0 0 1200 1200" xmlns="http://www.w3.org/2000/svg">
 <path d="m784.8 600 374.4-374.4c14.398-14.398 14.398-38.398 0-52.801l-132-132c-14.398-14.398-38.398-14.398-52.801 0l-374.4 374.4-374.4-374.4c-14.398-14.398-38.398-14.398-52.801 0l-132 132c-14.398 14.398-14.398 38.398 0 52.801l374.4 374.4-374.4 374.4c-14.398 14.398-14.398 38.398 0 52.801l132 132c14.398 14.398 38.398 14.398 52.801 0l374.4-374.4 374.4 374.4c14.398 14.398 38.398 14.398 52.801 0l132-132c14.398-14.398 14.398-38.398 0-52.801z"/>
</svg>
